<?xml version="1.0" encoding="UTF-8"?>
<svg id="Layer_1" data-name="Layer 1" xmlns="http://www.w3.org/2000/svg" viewBox="0 0 1037.17 1037.17">
  <defs>
    <style>
      .cls-1 {
        fill: #fff;
      }
    </style>
  </defs>
  <path class="cls-1" d="M518.58,0C232.17,0,0,232.18,0,518.59s232.17,518.58,518.58,518.58,518.58-232.18,518.58-518.58S804.99,0,518.58,0ZM742.46,463.01h-.08c-4.77.46-9.56.71-14.35.73-52.54,0-101.54-26.48-130.32-70.43v239.83c0,97.9-79.36,177.25-177.25,177.25s-177.25-79.36-177.25-177.25,79.35-177.25,177.25-177.25c3.7,0,7.32.33,10.96.56v87.34c-3.65-.44-7.21-1.1-10.96-1.1-49.96,0-90.46,40.5-90.46,90.46s40.5,90.47,90.46,90.47,94.11-39.37,94.11-89.35l.87-407.3h83.57c7.88,74.93,68.3,133.47,143.45,138.96v97.08Z"/>
</svg>