<?xml version="1.0" encoding="UTF-8"?>
<svg id="Layer_1" data-name="Layer 1" xmlns="http://www.w3.org/2000/svg" viewBox="0 0 1037.17 1037.17">
  <defs>
    <style>
      .cls-1 {
        fill-rule: evenodd;
      }

      .cls-1, .cls-2 {
        fill: #182815;
      }
    </style>
  </defs>
  <path class="cls-2" d="M0,1031.35l73.94-275.88c-41.86-75.53-63.9-160.17-63.9-246.08C10.04,228.52,238.56,0,519.43,0s509.39,228.52,509.39,509.39-228.51,509.4-509.39,509.4c-84.32,0-167.6-21.29-242.13-61.72L0,1031.35ZM291.08,853.68l17.46,10.42c64.11,38.2,137.04,58.4,210.89,58.4,227.78,0,413.11-185.31,413.11-413.11S747.21,96.29,519.43,96.29,106.33,281.59,106.33,509.39c0,75.22,20.9,149.28,60.42,214.19l10.72,17.59-41.28,154.03,154.9-41.51Z"/>
  <path class="cls-1" d="M708.92,580.23c-20.97-12.54-48.25-26.54-72.95-16.44-18.95,7.75-31.05,37.42-43.33,52.56-6.3,7.78-13.82,8.99-23.5,5.1-71.14-28.33-125.64-75.82-164.89-141.25-6.65-10.17-5.46-18.19,2.55-27.61,11.86-13.96,26.74-29.82,29.96-48.63,3.21-18.81-5.62-40.81-13.39-57.56-9.94-21.41-21.05-51.94-42.49-64.05-19.73-11.14-45.69-4.9-63.25,9.4-30.31,24.68-44.94,63.36-44.5,101.7.12,10.89,1.46,21.76,4.01,32.27,6.12,25.29,17.81,48.9,30.96,71.35,9.91,16.93,20.69,33.35,32.32,49.16,38.05,51.68,85.38,96.59,140.19,130.17,27.38,16.77,56.88,31.48,87.42,41.57,34.25,11.32,64.78,23.1,101.77,16.07,38.73-7.35,76.91-31.32,92.28-68.64,4.55-11.05,6.82-23.36,4.27-35.02-5.26-24.13-37.92-38.47-57.44-50.14Z"/>
</svg>