<?xml version="1.0" encoding="UTF-8"?>
<svg id="Layer_1" data-name="Layer 1" xmlns="http://www.w3.org/2000/svg" viewBox="0 0 1037.17 1037.17">
  <defs>
    <style>
      .cls-1 {
        fill: #fff;
      }
    </style>
  </defs>
  <path class="cls-1" d="M604.35,95.18v139.5h63.7v-56.81c0-6.37,5.18-11.55,11.55-11.55h93.12V0h-346.85v83.62h166.93c6.4,0,11.55,5.18,11.55,11.55Z"/>
  <rect class="cls-1" x="344.01" y="106.73" width="237.23" height="127.95"/>
  <rect class="cls-1" x="691.15" y="189.41" width="160.32" height="45.26"/>
  <path class="cls-1" d="M322.49,774.05h398.41l115.09-115.07,115.18-115.19v-197.96c0-24.29-9.87-46.29-25.81-62.24-15.95-15.94-37.97-25.81-62.24-25.81-.02,0-.05.03-.09.03-.02,0-.05-.03-.07-.03h-183.27s-.04.03-.09.03c-.03,0-.05-.03-.07-.03h-86.64s-.05.03-.09.03c-.02,0-.05-.03-.07-.03h-260.18s-.05.03-.09.03c-.02,0-.05-.03-.07-.03h-9.89c-48.53,0-88.03,39.5-88.03,88.06v340.19c0,48.56,39.5,88.03,88.03,88.03ZM844.47,293.98c0-6.39,5.18-11.56,11.56-11.56s11.55,5.17,11.55,11.56v281.69c0,6.38-5.18,11.56-11.55,11.56s-11.56-5.18-11.56-11.56v-281.69ZM754.82,293.98c0-6.39,5.18-11.56,11.55-11.56s11.56,5.17,11.56,11.56v359.94c0,6.41-5.15,11.56-11.56,11.56s-11.55-5.15-11.55-11.56v-359.94ZM668.04,293.98c0-6.39,5.17-11.56,11.55-11.56s11.55,5.17,11.55,11.56v443.89c0,6.38-5.18,11.55-11.55,11.55s-11.55-5.17-11.55-11.55v-443.89ZM581.26,293.98c0-6.39,5.18-11.56,11.56-11.56s11.55,5.17,11.55,11.56v443.89c0,6.38-5.18,11.55-11.55,11.55s-11.56-5.17-11.56-11.55v-443.89ZM494.48,293.98c0-6.39,5.18-11.56,11.55-11.56s11.55,5.17,11.55,11.56v443.89c0,6.38-5.17,11.55-11.55,11.55s-11.55-5.17-11.55-11.55v-443.89ZM407.68,293.98c0-6.39,5.18-11.56,11.55-11.56s11.55,5.17,11.55,11.56v443.89c0,6.38-5.15,11.55-11.55,11.55s-11.55-5.17-11.55-11.55v-443.89ZM320.9,293.98c0-6.39,5.18-11.56,11.55-11.56s11.55,5.17,11.55,11.56v443.89c0,6.38-5.18,11.55-11.55,11.55s-11.55-5.17-11.55-11.55v-443.89Z"/>
  <path class="cls-1" d="M273.86,910.43c6.02-2.13,9.17-8.73,7.04-14.74-2.81-7.94-4.24-16.26-4.24-24.71,0-21.17,9.11-41.35,25.01-55.38,4.78-4.23,5.24-11.53,1.01-16.31-4.22-4.79-11.52-5.24-16.31-1.01-20.85,18.41-32.82,44.91-32.82,72.7,0,11.08,1.87,21.99,5.56,32.41,1.68,4.75,6.14,7.71,10.89,7.71,1.28,0,2.58-.21,3.86-.67Z"/>
  <path class="cls-1" d="M788.98,944.79h-335.11c-6.38,0-11.56,5.17-11.56,11.56s5.17,11.56,11.56,11.56h335.11c6.38,0,11.56-5.17,11.56-11.56s-5.17-11.56-11.56-11.56Z"/>
  <path class="cls-1" d="M350.45,875.51c-32.77,0-61.01,19.6-73.7,47.7-.14.3-.3.6-.41.92-4.32,9.87-6.73,20.75-6.73,32.22,0,44.55,36.26,80.82,80.84,80.82s80.84-36.26,80.84-80.82-36.26-80.84-80.84-80.84ZM350.45,998.3c-23.13,0-41.95-18.83-41.95-41.95s18.81-41.95,41.95-41.95,41.95,18.81,41.95,41.95-18.81,41.95-41.95,41.95Z"/>
  <path class="cls-1" d="M893.44,875.51c-44.58,0-80.84,36.26-80.84,80.84s36.26,80.82,80.84,80.82,80.84-36.26,80.84-80.82c0-44.58-36.26-80.84-80.84-80.84ZM893.44,998.3c-23.13,0-41.95-18.83-41.95-41.95s18.81-41.95,41.95-41.95,41.94,18.81,41.94,41.95c0,23.11-18.81,41.95-41.94,41.95Z"/>
  <path class="cls-1" d="M148.67,24.85c-47.3,0-85.78,38.48-85.78,85.78,0,6.38,5.18,11.56,11.56,11.56s11.55-5.18,11.55-11.56c0-34.55,28.11-62.67,62.67-62.67s62.68,28.12,62.68,62.67v157.21c0,6.39,5.17,11.55,11.55,11.55s11.55-5.17,11.55-11.55V110.63c0-47.3-38.48-85.78-85.79-85.78Z"/>
</svg>