<?xml version="1.0" encoding="UTF-8"?>
<svg id="Layer_1" data-name="Layer 1" xmlns="http://www.w3.org/2000/svg" xmlns:xlink="http://www.w3.org/1999/xlink" viewBox="0 0 2834.65 2834.65">
  <defs>
    <style>
      .cls-1 {
        fill: none;
      }

      .cls-2 {
        fill: #182815;
      }

      .cls-3 {
        fill: #97cc1c;
      }

      .cls-4 {
        clip-path: url(#clippath);
      }
    </style>
    <clipPath id="clippath">
      <rect class="cls-1" x="4.13" y="94.31" width="2826.39" height="2646.03" rx="227.06" ry="227.06"/>
    </clipPath>
  </defs>
  <g class="cls-4">
    <g>
      <g>
        <path class="cls-2" d="M2458.71-113.11c-.15,169.85-17.32,339.48-51.05,504.23-32.99,161.14-82.21,319.64-146.31,471.1-62.96,148.78-140.9,292.3-231.65,426.57-89.95,133.08-193.26,258.23-307.06,371.97-113.8,113.75-239.02,217.01-372.16,306.92-134.35,90.72-277.95,168.63-426.81,231.56-151.55,64.07-310.15,113.28-471.39,146.26-165.6,33.87-336.13,51.04-506.86,51.04-8.72,0-17.44-.08-26.16-.16v295.68c8.72.08,17.43.17,26.16.17,1550.59,0,2807.73-1255.78,2808.98-2805.35h-295.68Z"/>
        <path class="cls-2" d="M388.89-113.11H93.2C91.96-32.77,26.17,32.22-54.58,32.22c-8.93,0-17.67-.84-26.16-2.36v297.21c8.66.5,17.37.83,26.16.83,244.18,0,442.22-197.24,443.47-441.01Z"/>
        <path class="cls-2" d="M980.28-113.11h-295.68c-.6,196.43-77.39,381.02-216.43,520-139.62,139.56-325.27,216.41-522.75,216.41-8.75,0-17.47-.2-26.16-.51v295.86c8.7.22,17.42.33,26.16.33,570.79,0,1033.62-461.88,1034.86-1032.1Z"/>
        <path class="cls-2" d="M1571.65-113.11h-295.68c-.3,178.82-35.4,352.14-104.39,515.18-66.99,158.31-162.96,300.56-285.24,422.78-122.29,122.23-264.62,218.17-423.03,285.14-163.86,69.28-338.1,104.4-517.88,104.4-8.74,0-17.45-.15-26.16-.32v295.67c8.71.14,17.42.33,26.16.33,897.39,0,1624.98-726.51,1626.23-1623.18Z"/>
        <path class="cls-2" d="M2163.03-113.11h-295.7c-.3,258.61-51.04,509.35-150.87,745.26-48.14,113.75-107.73,223.49-177.13,326.17-68.79,101.78-147.81,197.5-234.85,284.5-87.04,87-182.81,165.98-284.64,234.74-102.74,69.37-212.54,128.95-326.36,177.07-236.77,100.1-488.45,150.85-748.06,150.85-8.74,0-17.44-.21-26.16-.32v295.84c8.71.1,17.43.17,26.16.17,1223.99,0,2216.36-991.15,2217.61-2214.26Z"/>
      </g>
      <g>
        <path class="cls-3" d="M358.43,2871.45c.15-169.85,17.32-339.48,51.05-504.24,32.99-161.14,82.21-319.64,146.31-471.1,62.96-148.78,140.9-292.3,231.65-426.57,89.95-133.08,193.26-258.23,307.06-371.97,113.8-113.75,239.02-217.01,372.17-306.92,134.35-90.72,277.95-168.63,426.81-231.56,151.55-64.07,310.15-113.28,471.39-146.26,165.6-33.87,336.13-51.04,506.86-51.04,8.72,0,17.44.08,26.16.16V66.27c-8.72-.08-17.43-.16-26.16-.16C1321.13,66.11,63.99,1321.89,62.75,2871.45h295.68Z"/>
        <path class="cls-3" d="M2428.26,2871.45h295.68c1.24-80.34,67.04-145.33,147.78-145.33,8.93,0,17.67.84,26.16,2.36v-297.21c-8.66-.5-17.37-.83-26.16-.83-244.18,0-442.22,197.24-443.47,441.01Z"/>
        <path class="cls-3" d="M1836.86,2871.45h295.68c.6-196.43,77.39-381.02,216.43-520,139.62-139.56,325.27-216.41,522.75-216.41,8.75,0,17.46.21,26.16.51v-295.86c-8.7-.22-17.42-.33-26.16-.33-570.79,0-1033.62,461.88-1034.86,1032.1Z"/>
        <path class="cls-3" d="M1245.49,2871.45h295.68c.3-178.82,35.4-352.14,104.39-515.18,66.99-158.31,162.96-300.56,285.24-422.78,122.29-122.23,264.62-218.17,423.03-285.14,163.86-69.27,338.1-104.4,517.88-104.4,8.74,0,17.45.15,26.16.32v-295.67c-8.72-.14-17.42-.33-26.16-.33-897.39,0-1624.98,726.51-1626.23,1623.18Z"/>
        <path class="cls-3" d="M654.11,2871.45h295.7c.3-258.61,51.04-509.35,150.87-745.26,48.14-113.75,107.73-223.49,177.13-326.17,68.79-101.78,147.81-197.5,234.85-284.5,87.04-87,182.81-165.98,284.64-234.74,102.74-69.37,212.54-128.95,326.36-177.07,236.77-100.1,488.45-150.85,748.06-150.85,8.74,0,17.44.21,26.16.32v-295.84c-8.71-.1-17.43-.17-26.16-.17-1223.99,0-2216.37,991.15-2217.61,2214.26Z"/>
      </g>
    </g>
  </g>
</svg>