<?xml version="1.0" encoding="UTF-8"?>
<svg id="Layer_1" data-name="Layer 1" xmlns="http://www.w3.org/2000/svg" viewBox="0 0 1037.17 1037.17">
  <defs>
    <style>
      .cls-1 {
        fill: #fff;
      }
    </style>
  </defs>
  <path class="cls-1" d="M727.17,314.47c62.86,66.9,101.39,156.9,101.39,255.74,0,206.17-167.75,373.92-373.92,373.92S80.75,776.38,80.75,570.22,248.48,196.33,454.64,196.33c98.83,0,188.81,38.54,255.75,101.39l48.37-48.37c-79.33-75.27-186.43-121.46-304.12-121.46C210.75,127.88,12.31,326.32,12.31,570.22s198.44,442.34,442.34,442.34,442.34-198.43,442.34-442.34c0-117.69-46.19-224.79-121.44-304.11l-48.38,48.37Z"/>
  <path class="cls-1" d="M104.45,570.22c0,193.1,157.08,350.22,350.19,350.22s350.21-157.11,350.21-350.22c0-92.28-35.88-176.37-94.44-238.98l-51.52,51.52c45.41,49.41,73.13,115.27,73.13,187.46,0,152.96-124.42,277.38-277.38,277.38s-277.38-124.42-277.38-277.38,124.43-277.38,277.38-277.38c72.24,0,138.11,27.75,187.5,73.13l51.5-51.5c-62.62-58.56-146.71-94.44-239-94.44-193.11,0-350.19,157.08-350.19,350.18Z"/>
  <path class="cls-1" d="M200.96,570.22c0,139.88,113.81,253.69,253.69,253.69s253.69-113.8,253.69-253.69c0-65.67-25.07-125.61-66.19-170.7l-48.44,48.44c28.74,32.63,46.22,75.45,46.22,122.26,0,102.15-83.12,185.27-185.27,185.27s-185.27-83.12-185.27-185.27,83.12-185.23,185.27-185.23c46.81,0,89.61,17.45,122.26,46.21l48.44-48.44c-45.09-41.14-105.04-66.22-170.71-66.22-139.87,0-253.69,113.8-253.69,253.68Z"/>
  <path class="cls-1" d="M293.08,570.22c0,89.09,72.47,161.57,161.56,161.57s161.56-72.48,161.56-161.57c0-40.28-14.84-77.17-39.3-105.48l-45.27,45.27c13.02,16.62,20.79,37.52,20.79,60.22,0,53.92-43.87,97.79-97.79,97.79s-97.79-43.87-97.79-97.79,43.87-97.78,97.79-97.78c22.7,0,43.61,7.77,60.22,20.8l45.27-45.26c-28.32-24.48-65.2-39.3-105.49-39.3-89.09,0-161.56,72.45-161.56,161.54Z"/>
  <path class="cls-1" d="M380.56,570.22c0,40.86,33.22,74.09,74.08,74.09s74.08-33.23,74.08-74.09c0-16.16-5.19-31.12-14-43.3l-51.69,51.69c-2.32,2.3-5.36,3.46-8.39,3.46s-6.07-1.17-8.39-3.46c-4.62-4.65-4.62-12.14,0-16.76l51.71-51.71c-12.18-8.79-27.16-14.01-43.33-14.01-40.86,0-74.08,33.25-74.08,74.08Z"/>
  <path class="cls-1" d="M514.87,493.24l-16.9,16.9c6.42,4.67,12.08,10.34,16.75,16.78l16.92-16.92c-4.91-6.24-10.54-11.88-16.78-16.76Z"/>
  <path class="cls-1" d="M576.91,431.2l-16.78,16.78c5.99,5.16,11.61,10.76,16.78,16.75l16.79-16.78c-5.22-5.95-10.84-11.55-16.79-16.76Z"/>
  <path class="cls-1" d="M642.14,365.97l-16.79,16.79c5.86,5.31,11.45,10.9,16.79,16.75l16.75-16.75c-5.33-5.84-10.92-11.43-16.75-16.79Z"/>
  <path class="cls-1" d="M710.39,297.72l-16.75,16.75c5.78,5.4,11.37,10.99,16.78,16.76l16.75-16.76c-5.42-5.78-11.01-11.35-16.78-16.75Z"/>
  <path class="cls-1" d="M775.54,266.1l45.95-45.96c4.62-4.65,4.62-12.13,0-16.78-4.64-4.62-12.13-4.62-16.75,0l-45.98,45.98c5.76,5.4,11.36,10.99,16.78,16.76Z"/>
  <path class="cls-1" d="M932.38,104.32c-6.54,0-11.85-5.31-11.85-11.85V0l-77.66,77.66v104.32h104.33l77.66-77.66h-92.48Z"/>
</svg>