<?xml version="1.0" encoding="UTF-8"?>
<svg id="Layer_1" data-name="Layer 1" xmlns="http://www.w3.org/2000/svg" viewBox="0 0 1037.17 1037.17">
  <defs>
    <style>
      .cls-1 {
        fill: #fff;
      }
    </style>
  </defs>
  <rect class="cls-1" x="495.54" y="519.74" width="46.14" height="5.45"/>
  <path class="cls-1" d="M316.04,809.56v17.12c0,.22-.04.43-.06.63-.02.41-.04.79-.11,1.2-.06.32-.15.64-.23.95-.11.35-.19.68-.32,1.03-.13.32-.28.62-.43.9-.15.34-.32.64-.51.96-.17.27-.39.53-.6.8-.21.28-.41.55-.66.81-.25.27-.53.51-.83.74-.17.17-.32.34-.51.49-6.28,4.7-9.88,11.89-9.88,19.7,0,13.55,11.03,24.58,24.59,24.58s24.61-11.03,24.61-24.58c0-7.81-3.6-14.99-9.88-19.7-.19-.15-.34-.32-.51-.46-.3-.26-.6-.5-.85-.79-.23-.24-.45-.51-.64-.77-.22-.28-.43-.55-.62-.85-.19-.3-.34-.6-.49-.89-.15-.32-.32-.62-.45-.96-.1-.33-.21-.64-.3-.98-.08-.32-.19-.66-.23-1-.07-.36-.09-.74-.13-1.13,0-.23-.07-.45-.07-.68v-17.12c0-5.88,4.77-10.65,10.65-10.65h91.08v-80.45h-1.56c-8.6,8.94-20.61,14.16-33.13,14.16-25.29,0-45.88-20.59-45.88-45.88s20.59-45.9,45.88-45.9c12.52,0,24.52,5.22,33.13,14.16h1.56v-65.96H172.59v209.87h132.8c5.88,0,10.64,4.77,10.64,10.65Z"/>
  <path class="cls-1" d="M466.5,942.86h5.28l3.17,4.26c4.71,6.28,11.88,9.87,19.71,9.87,13.56,0,24.59-11.03,24.59-24.58s-11.03-24.62-24.59-24.62c-7.83,0-15.01,3.59-19.69,9.88l-3.19,4.28h-22.46c-5.87,0-10.64-4.77-10.64-10.64v-91.11h-80.43v1.58c8.94,8.58,14.16,20.61,14.16,33.11,0,25.31-20.59,45.88-45.9,45.88s-45.88-20.56-45.88-45.88c0-12.5,5.2-24.5,14.14-33.11v-1.58h-122.16v207.4h266.08v-74.11c0-.75.08-1.47.23-2.16.98-4.85,5.28-8.51,10.41-8.51h17.12s.04.03.06.03Z"/>
  <path class="cls-1" d="M582.62,809.56v-17.11c0-.24.04-.47.06-.72.02-.36.04-.73.11-1.08.06-.36.17-.69.25-1.05.08-.32.17-.62.3-.94.13-.34.28-.66.45-.98.14-.3.29-.58.46-.88.19-.3.43-.59.64-.87.21-.25.4-.52.61-.75.28-.3.58-.55.9-.81.17-.15.3-.32.47-.44,6.28-4.71,9.88-11.88,9.88-19.7,0-13.56-11.03-24.59-24.59-24.59s-24.61,11.03-24.61,24.59c0,7.81,3.6,14.98,9.88,19.7.19.15.34.32.53.46.27.26.57.49.83.77.24.25.45.53.66.79.22.28.4.55.59.85.19.29.34.59.49.91.17.3.32.6.45.91.1.35.21.66.3,1,.09.32.19.66.23.98.06.38.11.77.13,1.17,0,.21.07.45.07.66v17.11c0,5.88-4.77,10.65-10.65,10.65h-91.1v80.46h1.58c.55-.57,1.13-1.13,1.7-1.68.1-.11.23-.2.34-.3.51-.47,1-.92,1.53-1.36.21-.2.45-.36.68-.56.42-.34.85-.68,1.28-1,.26-.19.53-.38.79-.58.43-.3.83-.6,1.28-.88.26-.18.53-.36.81-.55.45-.28.87-.53,1.32-.81.28-.14.56-.31.85-.46.47-.28.94-.53,1.43-.79.26-.13.51-.26.77-.39.6-.3,1.21-.59,1.81-.85.15-.06.3-.14.45-.21.76-.32,1.53-.64,2.32-.91.22-.08.43-.15.64-.23.58-.19,1.15-.39,1.73-.56.29-.1.59-.17.87-.25.51-.15,1.02-.3,1.53-.43.32-.09.66-.15.98-.22.49-.12,1-.23,1.49-.32.34-.07.66-.12,1-.18.51-.09,1.02-.15,1.53-.21.32-.05.64-.11.96-.13.55-.07,1.13-.1,1.68-.15.28-.02.55-.07.83-.07.85-.04,1.68-.09,2.53-.09,25.29,0,45.88,20.59,45.88,45.91s-20.59,45.87-45.88,45.87c-.85,0-1.68-.02-2.53-.06-.28-.02-.55-.05-.81-.06-.57-.04-1.15-.08-1.7-.15-.32-.04-.64-.09-.96-.12-.51-.06-1.02-.15-1.55-.24-.32-.07-.64-.1-.98-.17-.49-.11-1-.21-1.49-.32-.32-.09-.64-.15-.96-.23-.53-.13-1.04-.26-1.55-.41-.3-.08-.58-.17-.87-.26-.58-.18-1.17-.38-1.75-.58-.22-.08-.41-.14-.62-.21-.79-.3-1.55-.6-2.32-.94-.13-.04-.23-.1-.36-.17-.64-.27-1.28-.57-1.89-.87-.26-.13-.49-.25-.72-.39-.51-.26-1-.51-1.49-.79-.27-.17-.53-.32-.79-.47-.47-.27-.92-.55-1.36-.83-.27-.17-.53-.36-.81-.53-.42-.29-.87-.6-1.3-.91-.26-.17-.51-.35-.75-.53-.45-.35-.89-.7-1.34-1.04l-.64-.51c-.53-.47-1.07-.94-1.57-1.4-.11-.09-.19-.18-.3-.26-.58-.56-1.15-1.11-1.7-1.68h-1.58v63.47h266.08v-207.41h-132.79c-5.9,0-10.64-4.77-10.64-10.65Z"/>
  <path class="cls-1" d="M459.96,665.62v.02c0,5.88-4.75,10.65-10.64,10.65h-17.1c-.26,0-.49-.06-.72-.08-.36-.02-.72-.05-1.11-.11-.34-.06-.68-.15-1-.26-.34-.09-.66-.17-.98-.3-.32-.13-.64-.28-.96-.43-.3-.14-.59-.32-.9-.49-.3-.19-.55-.4-.83-.62-.28-.21-.53-.4-.79-.63-.28-.28-.53-.55-.79-.85-.15-.18-.32-.33-.47-.51-4.68-6.28-11.86-9.88-19.69-9.88-13.56,0-24.59,11.03-24.59,24.61s11.03,24.59,24.59,24.59c7.84,0,15.01-3.6,19.69-9.87.15-.2.32-.35.47-.52.26-.3.51-.57.79-.85.25-.24.51-.43.79-.64.28-.21.53-.43.83-.62.3-.17.6-.34.92-.49.3-.15.61-.3.94-.43.32-.12.66-.21.98-.32.34-.08.66-.17,1-.23.38-.06.75-.09,1.13-.11.23-.02.47-.08.7-.08h17.1c5.9,0,10.64,4.76,10.64,10.65v91.09h80.46v-1.57c-8.94-8.58-14.16-20.61-14.16-33.1,0-25.32,20.59-45.89,45.9-45.89s45.88,20.57,45.88,45.89c0,12.49-5.2,24.52-14.14,33.1v1.57h122.14v-209.87h-266.08v76.57Z"/>
  <polygon class="cls-1" points="747.33 582.82 747.33 1012.56 864.57 895.36 864.57 465.63 747.33 582.82"/>
  <path class="cls-1" d="M503.33,429.13h73.83v-15.03h-117.11v84.35h117.11v-13.73h-73.83c-5.88,0-10.65-4.77-10.65-10.65s4.77-10.65,10.65-10.65h73.83v-13h-73.83c-5.88,0-10.65-4.77-10.65-10.65s4.77-10.65,10.65-10.65Z"/>
  <polygon class="cls-1" points="289.86 465.58 187.67 567.75 289.86 567.75 289.86 465.58"/>
  <path class="cls-1" d="M598.45,450.55v12.88h5.24c5.88,0,10.64,4.77,10.64,10.65s-4.76,10.65-10.64,10.65h-5.24v24.38c0,5.9-4.75,10.64-10.65,10.64h-24.84v16.1c0,5.88-4.77,10.64-10.64,10.64h-67.43c-5.88,0-10.65-4.76-10.65-10.64v-16.1h-24.84c-5.88,0-10.65-4.75-10.65-10.64v-58.55h-127.61v117.19h421.13l117.24-117.19h-251.07Z"/>
  <path class="cls-1" d="M453.96,373.39c.23.11.41.26.62.38.34.18.68.36.98.57.3.22.55.45.83.68.23.21.49.43.72.66.25.28.47.56.68.85.21.26.4.51.57.77.19.3.34.62.51.93.15.3.3.6.42.91.13.32.21.69.32,1.03.08.32.17.62.23.93.06.41.1.83.13,1.24,0,.24.07.42.07.66v9.79h117.11v-9.79c0-.24.06-.47.08-.71.02-.38.05-.79.11-1.17.06-.34.17-.66.25-.98.09-.34.17-.68.3-1,.13-.32.3-.62.45-.93.14-.3.3-.62.49-.9.17-.27.39-.55.58-.81.23-.27.45-.55.68-.83.24-.24.49-.45.75-.68.25-.21.51-.45.81-.66.32-.21.64-.4.98-.59.21-.1.4-.26.62-.36,52.52-24.91,86.48-78.54,86.48-136.62,0-83.32-67.78-151.13-151.11-151.13s-151.12,67.81-151.12,151.13c0,58.08,33.94,111.71,86.46,136.62Z"/>
  <path class="cls-1" d="M518.61,46.81c5.88,0,10.65-4.77,10.65-10.65V10.65c0-5.88-4.77-10.65-10.65-10.65s-10.64,4.77-10.64,10.65v25.51c0,5.88,4.77,10.65,10.64,10.65Z"/>
  <path class="cls-1" d="M410.68,67.93c1.97,3.41,5.55,5.33,9.23,5.33,1.81,0,3.64-.46,5.31-1.43,5.09-2.94,6.84-9.45,3.9-14.54l-12.75-22.08c-2.94-5.1-9.45-6.84-14.54-3.9-5.09,2.94-6.84,9.45-3.9,14.54l12.76,22.09Z"/>
  <path class="cls-1" d="M320.21,131.34l22.09,12.75c1.68.97,3.51,1.43,5.31,1.43,3.68,0,7.26-1.91,9.23-5.32,2.94-5.1,1.2-11.61-3.9-14.54l-22.09-12.76c-5.09-2.94-11.6-1.2-14.54,3.89-2.94,5.09-1.19,11.6,3.9,14.54Z"/>
  <path class="cls-1" d="M295.67,244.23h25.51c5.88,0,10.64-4.76,10.64-10.64s-4.77-10.64-10.64-10.64h-25.51c-5.88,0-10.64,4.76-10.64,10.64s4.76,10.64,10.64,10.64Z"/>
  <path class="cls-1" d="M342.31,323.08l-22.1,12.75c-5.09,2.94-6.84,9.44-3.9,14.54,1.97,3.42,5.55,5.33,9.23,5.33,1.81,0,3.63-.45,5.31-1.43l22.09-12.75c5.09-2.93,6.84-9.44,3.9-14.54-2.94-5.09-9.44-6.83-14.54-3.9Z"/>
  <path class="cls-1" d="M684.26,341.53l22.09,12.75c1.67.97,3.5,1.43,5.31,1.43,3.68,0,7.26-1.91,9.23-5.33,2.94-5.09,1.2-11.6-3.9-14.54l-22.09-12.75c-5.1-2.93-11.61-1.19-14.54,3.9-2.94,5.1-1.19,11.6,3.9,14.54Z"/>
  <path class="cls-1" d="M705.39,233.59c0,5.88,4.77,10.65,10.64,10.65h25.51c5.88,0,10.64-4.76,10.64-10.65s-4.76-10.64-10.64-10.64h-25.51c-5.88,0-10.64,4.76-10.64,10.64Z"/>
  <path class="cls-1" d="M689.6,145.52c1.8,0,3.63-.46,5.31-1.43l22.08-12.75c5.09-2.94,6.84-9.45,3.9-14.54-2.94-5.09-9.45-6.83-14.54-3.89l-22.09,12.76c-5.09,2.94-6.83,9.45-3.9,14.54,1.97,3.41,5.55,5.32,9.23,5.32Z"/>
  <path class="cls-1" d="M612,71.83c1.68.97,3.51,1.43,5.32,1.43,3.68,0,7.25-1.91,9.23-5.33l12.75-22.08c2.94-5.09,1.2-11.6-3.9-14.54-5.09-2.94-11.6-1.2-14.54,3.89l-12.75,22.09c-2.94,5.09-1.2,11.6,3.89,14.54Z"/>
</svg>