<?xml version="1.0" encoding="UTF-8"?>
<svg id="Layer_1" data-name="Layer 1" xmlns="http://www.w3.org/2000/svg" viewBox="0 0 1037.17 1037.17">
  <defs>
    <style>
      .cls-1 {
        fill: #fff;
      }
    </style>
  </defs>
  <rect class="cls-1" x="511.84" y="543.67" width="41.58" height="42.93" transform="translate(-243.61 542.14) rotate(-45)"/>
  <path class="cls-1" d="M525.11,618.72l-38.22-38.21-76.99,76.99,116.53,116.53c.18.18.4.35.6.54.64.61,1.27,1.22,1.95,1.77.21.18.45.32.68.5.69.53,1.37,1.06,2.09,1.53.11.08.23.15.35.22,11.17,7.18,25.63,7.19,36.81.03.13-.08.27-.16.4-.25.69-.45,1.37-.98,2.04-1.5.23-.18.49-.34.71-.53.67-.54,1.31-1.15,1.94-1.75.2-.19.41-.36.61-.55l52.89-52.91-102.25-102.25s-.06-.04-.08-.06c-.03-.03-.04-.06-.07-.09Z"/>
  <path class="cls-1" d="M614.95,447.75c18.16-10.29,40.1-21.45,65.17-31.89.52-.26,1.06-.48,1.62-.66,40.58-16.76,89.27-31.56,143.56-37.89L512.02,64.03c-10.34,88.73-43.35,162.56-70.44,210.36-23.14,40.81-45.3,69.17-56.28,82.27l147.39,147.39c13.08-10.98,41.44-33.15,82.26-56.29Z"/>
  <path class="cls-1" d="M860.81,381.08c2.42,2.41,6.63,2.42,9.03,0l7.59-7.58c1.2-1.2,1.87-2.81,1.87-4.51s-.66-3.31-1.87-4.52l-132.36-132.35s-.03-.02-.03-.03c-.01-.01-.02-.03-.04-.04l-87.67-87.67s-.06-.04-.08-.06c-.03-.03-.04-.06-.06-.09L524.87,11.91c-1.21-1.21-2.82-1.87-4.53-1.87s-3.31.66-4.51,1.87l-7.58,7.58c-2.48,2.48-2.48,6.54,0,9.03l352.56,352.56Z"/>
  <path class="cls-1" d="M239.77,649.57c40.33,40.32,105.92,40.34,146.27.06.01-.03.03-.05.05-.06l92.87-92.86s.05-.04.07-.06l37.27-37.27-146.33-146.33-130.19,130.19c-40.34,40.34-40.34,105.99,0,146.34Z"/>
  <path class="cls-1" d="M745.02,144.29c-17.08-17.09-43.41-19.4-63.05-7.01l70.08,70.09c12.4-19.64,10.07-45.97-7.03-63.07Z"/>
  <path class="cls-1" d="M921.85,437.03h-42.18v590.58h42.18c35.75,0,64.84-29.07,64.84-64.83v-460.93c0-35.75-29.09-64.83-64.84-64.83ZM941.69,801.1c0,6.19-5.02,11.22-11.22,11.22s-11.22-5.03-11.22-11.22v-137.58c0-6.19,5.03-11.22,11.22-11.22s11.22,5.03,11.22,11.22v137.58Z"/>
  <path class="cls-1" d="M103.2,437.01c-35.76,0-64.85,29.1-64.85,64.85v460.91c0,35.74,29.08,64.85,64.85,64.85h42.18V437.01h-42.18ZM105.8,927.39c0,6.21-5.03,11.22-11.22,11.22s-11.22-5-11.22-11.22v-37.09c0-6.2,5.03-11.22,11.22-11.22s11.22,5.02,11.22,11.22v37.09ZM105.8,801.1c0,6.19-5.03,11.22-11.22,11.22s-11.22-5.03-11.22-11.22v-137.58c0-6.19,5.03-11.22,11.22-11.22s11.22,5.03,11.22,11.22v137.58Z"/>
  <path class="cls-1" d="M548.66,519.99l37.66,37.66c2.11,2.11,3.29,4.96,3.29,7.93s-1.18,5.83-3.29,7.93l-37.34,37.34,102.33,102.33c4.39,4.38,4.39,11.48,0,15.86l-60.8,60.81s-.01.02-.03.03c-1.11,1.12-2.28,2.16-3.46,3.16-.24.21-.5.44-.76.65-.27.22-.55.43-.82.65-.49.38-.97.77-1.46,1.13-.11.07-.21.14-.31.22-9.58,6.97-21.07,10.74-33.14,10.74s-23.6-3.79-33.18-10.77c-.09-.06-.19-.13-.28-.18-.51-.38-1.02-.79-1.53-1.18-.25-.2-.51-.39-.76-.59-.3-.25-.59-.51-.88-.76-1.14-.97-2.26-1.98-3.34-3.06,0,0-.02,0-.02-.03l-116.87-116.87c-23.29,19.49-52,29.25-80.72,29.25-32.25,0-64.49-12.27-89.04-36.82-49.08-49.1-49.08-128.98,0-178.07l50.35-50.36h-106.43v590.6h689.39V437.04h-169.43c-70.35,29.58-119.92,67.12-139.13,82.95Z"/>
</svg>