<?xml version="1.0" encoding="UTF-8"?>
<svg id="Layer_1" data-name="Layer 1" xmlns="http://www.w3.org/2000/svg" viewBox="0 0 1037.17 1037.17">
  <defs>
    <style>
      .cls-1 {
        fill: #fff;
      }
    </style>
  </defs>
  <path class="cls-1" d="M390.77,693.77l74.87-27.25-104.25-286.43-251.81,91.65c-78.97,28.74-119.83,116.37-91.09,195.34,13.92,38.25,41.9,68.79,78.79,86,36.86,17.19,78.19,19.01,116.43,5.13.03-.01.07-.04.1-.05l176.85-64.36s.07-.01.11-.03Z"/>
  <path class="cls-1" d="M415.54,797.16c-.02-.05-.02-.1-.04-.15l-27.89-76.64-154.39,56.19,82.18,225.78c.44,1.2.92,2.36,1.44,3.52.09.19.17.39.26.58,3.98,8.6,10.14,15.83,17.67,21.12.04.03.08.05.11.08,2.03,1.41,4.16,2.68,6.37,3.8.3.15.6.3.9.45.91.44,1.83.86,2.77,1.25.43.18.87.34,1.31.51.65.25,1.31.49,1.98.72.51.17,1.02.35,1.54.51.88.27,1.77.52,2.67.74.58.14,1.15.26,1.73.39.53.12,1.07.22,1.6.32.76.14,1.53.26,2.29.37.74.1,1.48.19,2.23.26.55.05,1.1.09,1.65.13.78.05,1.56.08,2.35.09.54.01,1.09.01,1.63,0,1.06-.02,2.12-.06,3.17-.14.35-.03.69-.04,1.03-.08,1.24-.12,2.47-.28,3.7-.49.33-.05.65-.11.98-.17,1.27-.24,2.54-.52,3.8-.85.23-.06.44-.12.67-.19,1.35-.38,2.69-.79,4.02-1.27l104.62-38.08-72.27-198.56c-.02-.07-.06-.12-.09-.19Z"/>
  <path class="cls-1" d="M988.46,314.03c-13.13-36.06-50.58-56.39-87.13-49.21l52.03,142.94c32.6-18,48.23-57.65,35.1-93.73Z"/>
  <rect class="cls-1" x="419.98" y="698.49" width="67.84" height="69.77" transform="translate(-223.46 199.47) rotate(-20)"/>
  <path class="cls-1" d="M509.3,297.26c-57.6,41.02-105.31,64.65-125.7,73.96l104.76,287.82c21.6-5.97,73.35-18.53,143.84-24.14,79.82-6.35,198.54-4.34,322.34,38.41L731.53,60.63c-67.35,112.33-157,190.18-222.23,236.63Z"/>
  <path class="cls-1" d="M935.34,428.13s-.03-.06-.04-.09c0-.02,0-.05-.02-.07l-60.78-167s-.03-.06-.04-.09c-.01-.03-.01-.06-.02-.1L782.7,8.75c-1.9-5.23-6.92-8.75-12.48-8.75-1.54,0-3.07.27-4.54.81l-14.43,5.25c-6.88,2.51-10.44,10.14-7.93,17.02l244.38,671.42c1.91,5.23,6.92,8.74,12.48,8.74,1.54,0,3.07-.27,4.54-.81l14.43-5.25c3.33-1.21,5.99-3.65,7.49-6.86,1.5-3.21,1.66-6.82.45-10.15l-91.74-252.04Z"/>
</svg>