<?xml version="1.0" encoding="UTF-8"?>
<svg id="Layer_1" data-name="Layer 1" xmlns="http://www.w3.org/2000/svg" viewBox="0 0 1037.17 1037.17">
  <defs>
    <style>
      .cls-1 {
        fill: #fff;
      }
    </style>
  </defs>
  <path class="cls-1" d="M701.93,498.62c-11.62-10.71-25.73-16.07-42.33-16.07-8.15,0-15.77,1.43-22.86,4.3-7.09,2.87-13.35,6.86-18.78,11.99-5.43,5.14-9.89,11.32-13.36,18.56-3.47,7.24-5.51,15.25-6.1,23.99h123.13c-1.52-17.8-8.08-32.06-19.7-42.77Z"/>
  <path class="cls-1" d="M518.59,0C232.18,0,0,232.18,0,518.59s232.18,518.58,518.59,518.58,518.58-232.18,518.58-518.58S804.99,0,518.59,0ZM580.24,368.48h158.73v39.39h-158.73v-39.39ZM512,635.86c-5.62,10.59-13.32,19.47-23.13,26.63-9.81,7.18-21.19,12.62-34.1,16.35-12.93,3.75-26.72,5.61-41.35,5.61h-160.25v-331.71h177.54c11.52,0,21.96,2.5,31.31,7.48,9.34,4.99,17.29,11.45,23.82,19.39,6.55,7.94,11.61,16.98,15.19,27.1,3.58,10.12,5.37,20.32,5.37,30.6,0,16.2-4.05,31.38-12.14,45.55-8.1,14.17-19.94,24.69-35.51,31.54,19,5.6,34.02,15.66,45.09,30.13,11.05,14.49,16.59,32.63,16.59,54.43,0,14.01-2.8,26.32-8.4,36.91ZM782.74,580.78h-183.34c.91,9.35,3.17,17.65,6.79,24.89,3.63,7.24,8.3,13.43,14.03,18.56,5.73,5.13,12.22,9.05,19.47,11.77,7.25,2.72,14.78,4.08,22.64,4.08,12.06,0,23.45-2.94,34.17-8.83,10.71-5.88,18.04-13.64,21.96-23.31l52.06,14.49c-8.76,18.11-22.71,32.97-41.88,44.59-19.16,11.62-42.02,17.43-68.58,17.43-19.01,0-36.21-3.25-51.6-9.73-30.5-12.98-52-34.78-64.51-65.42-5.89-14.78-8.83-30.32-8.83-46.63s2.87-32.81,8.6-47.76c12.29-31.02,33.8-53.12,64.51-66.32,15.54-6.63,32.97-9.96,52.29-9.96s36.58,3.33,51.83,9.96c50.1,21.84,73.7,70.4,71.53,123.13-.15,3.62-.53,6.64-1.13,9.06Z"/>
  <path class="cls-1" d="M444.25,555.5c-3.43-4.04-7.47-7.24-12.15-9.58-4.67-2.34-9.81-3.5-15.41-3.5h-99.05v87.36h95.78c5.92,0,11.45-1.08,16.59-3.27,5.14-2.18,9.58-5.21,13.32-9.11,3.74-3.89,6.69-8.49,8.88-13.78,2.18-5.29,3.27-10.9,3.27-16.82s-1.01-11.6-3.04-17.05c-2.02-5.44-4.75-10.2-8.17-14.25Z"/>
  <path class="cls-1" d="M431.41,480.28c7.62-7.47,11.44-17.75,11.44-30.84s-3.5-22.89-10.51-30.37c-7-7.47-15.64-11.21-25.93-11.21h-88.77v83.63h85.97c10.9,0,20.16-3.74,27.8-11.21Z"/>
</svg>