<?xml version="1.0" encoding="UTF-8"?>
<svg id="Layer_1" data-name="Layer 1" xmlns="http://www.w3.org/2000/svg" viewBox="0 0 1037.17 1037.17">
  <defs>
    <style>
      .cls-1 {
        fill: #fff;
      }
    </style>
  </defs>
  <path class="cls-1" d="M626.32,299.5h-215.48c-61.4,0-111.35,49.94-111.35,111.34v215.5c0,61.4,49.95,111.34,111.35,111.34h215.48c61.4,0,111.35-49.95,111.35-111.34v-215.5c0-61.4-49.95-111.34-111.35-111.34ZM520.8,651.51c-73.29,0-132.92-59.63-132.92-132.92s59.63-132.92,132.92-132.92,132.92,59.63,132.92,132.92-59.63,132.92-132.92,132.92ZM661.47,408.37c-17.47,0-31.64-14.17-31.64-31.65s14.17-31.64,31.64-31.64,31.65,14.17,31.65,31.64-14.17,31.65-31.65,31.65Z"/>
  <path class="cls-1" d="M518.59,0C232.18,0,0,232.18,0,518.59s232.18,518.58,518.59,518.58,518.58-232.18,518.58-518.58S804.99,0,518.59,0ZM788.45,626.34c0,89.39-72.73,162.12-162.13,162.12h-215.48c-89.4,0-162.12-72.73-162.12-162.12v-215.5c0-89.4,72.73-162.12,162.12-162.12h215.48c89.4,0,162.13,72.73,162.13,162.12v215.5Z"/>
  <path class="cls-1" d="M520.8,433.44c-46.95,0-85.15,38.19-85.15,85.15s38.19,85.14,85.15,85.14,85.14-38.19,85.14-85.14-38.19-85.15-85.14-85.15Z"/>
</svg>