<?xml version="1.0" encoding="UTF-8"?>
<svg id="Layer_1" data-name="Layer 1" xmlns="http://www.w3.org/2000/svg" viewBox="0 0 1037.17 1037.17">
  <defs>
    <style>
      .cls-1 {
        fill: #fff;
      }
    </style>
  </defs>
  <path class="cls-1" d="M518.58,0C232.18,0,0,232.18,0,518.59s232.18,518.58,518.58,518.58,518.59-232.18,518.59-518.58S804.99,0,518.58,0ZM399.97,683.55h-89.16v-286.4h89.16v286.4ZM355.41,358.06c-28.58,0-51.68-23.17-51.68-51.65s23.1-51.58,51.68-51.58,51.61,23.13,51.61,51.58-23.1,51.65-51.61,51.65ZM733.44,683.55h-88.96v-139.25c0-33.24-.65-75.95-46.27-75.95s-53.41,36.18-53.41,73.52v141.67h-88.98v-286.4h85.39v39.17h1.17c11.91-22.54,40.95-46.27,84.3-46.27,90.14,0,106.75,59.28,106.75,136.41v157.08Z"/>
</svg>